STARTFONT 2.1
COMMENT
COMMENT Converted from OpenType font "VCR_OSD_MONO_1.001.ttf" by "otf2bdf 3.0".
COMMENT
FONT -FreeType-VCR OSD Mono-Medium-R-Normal--39-280-100-100-P-167-ISO10646-1
SIZE 28 100 100
FONTBOUNDINGBOX 23 33 0 0
STARTPROPERTIES 19
FOUNDRY "FreeType"
FAMILY_NAME "VCR OSD Mono"
WEIGHT_NAME "Medium"
SLANT "R"
SETWIDTH_NAME "Normal"
ADD_STYLE_NAME ""
PIXEL_SIZE 39
POINT_SIZE 280
RESOLUTION_X 100
RESOLUTION_Y 100
SPACING "P"
AVERAGE_WIDTH 167
CHARSET_REGISTRY "ISO10646"
CHARSET_ENCODING "1"
FONT_ASCENT 34
FONT_DESCENT 0
COPYRIGHT "-FreeType-VCR OSD Mono-Medium-R-Normal--39-280-100-100-P-167-ISO10646-1"
_OTF_FONTFILE "VCR_OSD_MONO_1.001.ttf"
_OTF_PSNAME "VCROSDMono"
ENDPROPERTIES
CHARS 207
STARTCHAR 0000
ENCODING 0
SWIDTH 0 0
DWIDTH 0 0
BBX 0 0 0 0
BITMAP
ENDCHAR
STARTCHAR 001D
ENCODING 29
SWIDTH 0 0
DWIDTH 0 0
BBX 0 0 0 0
BITMAP
ENDCHAR
STARTCHAR 0020
ENCODING 32
SWIDTH 591 0
DWIDTH 23 0
BBX 0 0 0 0
BITMAP
ENDCHAR
STARTCHAR 0021
ENCODING 33
SWIDTH 591 0
DWIDTH 23 0
BBX 3 27 8 2
BITMAP
E0
E0
E0
E0
E0
E0
E0
E0
E0
E0
E0
E0
E0
E0
E0
E0
E0
E0
E0
00
00
00
00
E0
E0
E0
E0
ENDCHAR
STARTCHAR 0022
ENCODING 34
SWIDTH 591 0
DWIDTH 23 0
BBX 15 8 4 21
BITMAP
FC7E
FC7E
FC7E
FC7E
FC7E
FC7E
3018
3018
ENDCHAR
STARTCHAR 0023
ENCODING 35
SWIDTH 591 0
DWIDTH 23 0
BBX 19 25 2 4
BITMAP
001E00
001E00
0F1E00
0F1E00
0F1FE0
0F1FE0
0FFFE0
0FFFE0
FFFE00
FFFE00
FF1E00
FF1E00
0F1E00
0F1FE0
0F1FE0
0F1FE0
0FFFE0
FFFE00
FFFE00
FFFE00
FF1E00
0F1E00
0F1E00
0F1E00
0F0000
ENDCHAR
STARTCHAR 0024
ENCODING 36
SWIDTH 591 0
DWIDTH 23 0
BBX 19 27 2 2
BITMAP
00E000
00E000
0FFE00
0FFE00
3FFF80
3FFF80
FCE7E0
FCE7E0
F0E1E0
F0E1E0
FCE000
FCE000
3FFE00
3FFE00
0FFF80
0FFF80
00E7E0
F0E1E0
F0E1E0
FCE7E0
FCE7E0
3FFF80
3FFF80
0FFE00
0FFE00
00E000
00E000
ENDCHAR
STARTCHAR 0025
ENCODING 37
SWIDTH 591 0
DWIDTH 23 0
BBX 19 27 2 2
BITMAP
3F01E0
3F01E0
FF81E0
FF81E0
F381E0
F381E0
F387E0
F387E0
FF9F80
FF9F80
3F7E00
3F7E00
00F800
00F800
03E000
03E000
0F9F80
3F7FE0
3F7FE0
3F7FE0
FC79E0
FC79E0
F079E0
F079E0
F07FE0
F01F80
F01F80
ENDCHAR
STARTCHAR 0026
ENCODING 38
SWIDTH 591 0
DWIDTH 23 0
BBX 19 31 2 2
BITMAP
03E000
03E000
0FF800
0FF800
3C1E00
3C1E00
3C1E00
3C1E00
3C1E00
3C1E00
3C1E00
3C1E00
0F7800
0F7800
0FF800
0FF800
3FE000
3FE000
FFE000
FFE000
F0F9E0
F0F9E0
F07FE0
F07FE0
F01F80
FC1F80
FC1F80
3FFFE0
3FFFE0
0FF9E0
0FF9E0
ENDCHAR
STARTCHAR 0027
ENCODING 39
SWIDTH 591 0
DWIDTH 23 0
BBX 5 8 8 21
BITMAP
F8
F8
F8
F8
F8
F8
20
20
ENDCHAR
STARTCHAR 0028
ENCODING 40
SWIDTH 591 0
DWIDTH 23 0
BBX 9 30 6 2
BITMAP
0780
0600
0E00
3800
3800
F000
F000
F000
F000
F000
F000
F000
F000
F000
F000
F000
F000
F000
F000
F000
F000
F000
F000
F000
3800
3800
0E00
0E00
0780
0780
ENDCHAR
STARTCHAR 0029
ENCODING 41
SWIDTH 591 0
DWIDTH 23 0
BBX 9 30 8 2
BITMAP
E000
F800
3800
1E00
1E00
0780
0780
0780
0780
0780
0780
0780
0780
0780
0780
0780
0780
0780
0780
0780
0780
0780
0780
0780
1E00
1E00
3800
3800
E000
E000
ENDCHAR
STARTCHAR 002A
ENCODING 42
SWIDTH 591 0
DWIDTH 23 0
BBX 15 17 4 13
BITMAP
0380
C386
C386
F39E
F39E
3FF8
3FF8
0FE0
0FE0
3FF8
3FF8
F39E
F39E
C386
C386
0380
0380
ENDCHAR
STARTCHAR 002B
ENCODING 43
SWIDTH 591 0
DWIDTH 23 0
BBX 19 19 2 6
BITMAP
00E000
00E000
00E000
00E000
00E000
00E000
00E000
00E000
FFFFE0
FFFFE0
FFFFE0
FFFFE0
00E000
00E000
00E000
00E000
00E000
00E000
00E000
ENDCHAR
STARTCHAR 002C
ENCODING 44
SWIDTH 591 0
DWIDTH 23 0
BBX 7 8 6 2
BITMAP
0E
0E
0E
0E
38
38
F0
F0
ENDCHAR
STARTCHAR 002D
ENCODING 45
SWIDTH 591 0
DWIDTH 23 0
BBX 15 4 4 13
BITMAP
FFFE
FFFE
FFFE
FFFE
ENDCHAR
STARTCHAR 002E
ENCODING 46
SWIDTH 591 0
DWIDTH 23 0
BBX 3 4 8 2
BITMAP
E0
E0
E0
E0
ENDCHAR
STARTCHAR 002F
ENCODING 47
SWIDTH 591 0
DWIDTH 23 0
BBX 19 27 2 2
BITMAP
0001E0
0001E0
0001E0
0001E0
0001E0
0001E0
0007E0
0007E0
001F80
001F80
007E00
007E00
00F800
00E000
03E000
0F8000
0F8000
3F0000
3F0000
FC0000
FC0000
F00000
F00000
F00000
F00000
F00000
F00000
ENDCHAR
STARTCHAR 0030
ENCODING 48
SWIDTH 591 0
DWIDTH 23 0
BBX 19 27 2 2
BITMAP
0FFE00
0FFE00
3FFF80
3FFF80
FC07E0
FC07E0
F001E0
F001E0
F01FE0
F01FE0
F07FE0
F079E0
F0F9E0
F0E1E0
F3E1E0
F381E0
FF81E0
FF01E0
FF01E0
F001E0
F001E0
FC07E0
FC07E0
3FFF80
3FFF80
0FFE00
0FFE00
ENDCHAR
STARTCHAR 0031
ENCODING 49
SWIDTH 591 0
DWIDTH 23 0
BBX 11 27 6 2
BITMAP
0E00
0E00
3E00
3E00
FE00
FE00
FE00
FE00
0E00
0E00
0E00
0E00
0E00
0E00
0E00
0E00
0E00
0E00
0E00
0E00
0E00
0E00
0E00
FFE0
FFE0
FFE0
FFE0
ENDCHAR
STARTCHAR 0032
ENCODING 50
SWIDTH 591 0
DWIDTH 23 0
BBX 19 27 2 2
BITMAP
0FFE00
0FFE00
3FFF80
3FFF80
FC07E0
FC07E0
F001E0
F001E0
0001E0
0001E0
0007E0
0007E0
0FFF80
0FFF80
3FFE00
3FFE00
FC0000
FC0000
F00000
F00000
F00000
F00000
F00000
FFFFE0
FFFFE0
FFFFE0
FFFFE0
ENDCHAR
STARTCHAR 0033
ENCODING 51
SWIDTH 591 0
DWIDTH 23 0
BBX 19 27 2 2
BITMAP
0FFE00
0FFE00
3FFF80
3FFF80
FC07E0
FC07E0
F001E0
F001E0
0001E0
0001E0
0007E0
0007E0
00FF80
00FF80
00FF80
00FF80
0007E0
0007E0
0001E0
F001E0
F001E0
FC07E0
FC07E0
3FFF80
3FFF80
0FFE00
0FFE00
ENDCHAR
STARTCHAR 0034
ENCODING 52
SWIDTH 591 0
DWIDTH 23 0
BBX 19 27 2 2
BITMAP
001E00
001E00
007E00
007E00
00FE00
00FE00
03FE00
03FE00
0F9E00
0F9E00
3F1E00
3F1E00
FC1E00
FC1E00
F01E00
F01E00
FFFFE0
FFFFE0
FFFFE0
FFFFE0
001E00
001E00
001E00
001E00
001E00
001E00
001E00
ENDCHAR
STARTCHAR 0035
ENCODING 53
SWIDTH 591 0
DWIDTH 23 0
BBX 19 27 2 2
BITMAP
FFFFE0
FFFFE0
FFFFE0
FFFFE0
F00000
F00000
F00000
F00000
FFFE00
FFFE00
FFFF80
FFFF80
0007E0
0007E0
0001E0
0001E0
0001E0
0001E0
0001E0
F001E0
F001E0
FC07E0
FC07E0
3FFF80
3FFF80
0FFE00
0FFE00
ENDCHAR
STARTCHAR 0036
ENCODING 54
SWIDTH 591 0
DWIDTH 23 0
BBX 19 27 2 2
BITMAP
0FFE00
0FFE00
3FFF80
3FFF80
FC07E0
FC07E0
F001E0
F001E0
F00000
F00000
F00000
F00000
FFFE00
FFFE00
FFFF80
FFFF80
F007E0
F007E0
F001E0
F001E0
F001E0
FC07E0
FC07E0
3FFF80
3FFF80
0FFE00
0FFE00
ENDCHAR
STARTCHAR 0037
ENCODING 55
SWIDTH 591 0
DWIDTH 23 0
BBX 19 27 2 2
BITMAP
FFFFE0
FFFFE0
FFFFE0
FFFFE0
0001E0
0001E0
0001E0
0001E0
0007E0
0007E0
001F80
001F80
007E00
007800
00F800
00E000
00E000
00E000
00E000
00E000
00E000
00E000
00E000
00E000
00E000
00E000
00E000
ENDCHAR
STARTCHAR 0038
ENCODING 56
SWIDTH 591 0
DWIDTH 23 0
BBX 19 27 2 2
BITMAP
0FFE00
0FFE00
3FFF80
3FFF80
FC07E0
FC07E0
F001E0
F001E0
F001E0
F001E0
FC07E0
FC07E0
3FFF80
3FFF80
3FFF80
BC7FC0
FC07E0
FC07E0
F001E0
F001E0
F001E0
FC07E0
FC07E0
3FFF80
3FFF80
0FFE00
0FFE00
ENDCHAR
STARTCHAR 0039
ENCODING 57
SWIDTH 591 0
DWIDTH 23 0
BBX 19 27 2 2
BITMAP
0FFE00
0FFE00
3FFF80
3FFF80
FC07E0
FC07E0
F001E0
F001E0
F001E0
F001E0
FC01E0
FC01E0
3FFFE0
3FFFE0
0FFFE0
0FFFE0
0001E0
0001E0
0001E0
F001E0
F001E0
FC07E0
FC07E0
3FFF80
3FFF80
0FFE00
0FFE00
ENDCHAR
STARTCHAR 003A
ENCODING 58
SWIDTH 591 0
DWIDTH 23 0
BBX 3 19 8 6
BITMAP
E0
E0
E0
E0
00
00
00
00
00
00
00
00
00
00
00
E0
E0
E0
E0
ENDCHAR
STARTCHAR 003B
ENCODING 59
SWIDTH 591 0
DWIDTH 23 0
BBX 7 23 4 2
BITMAP
0E
0E
0E
0E
00
00
00
00
00
00
00
00
00
00
00
0E
0E
0E
0E
3C
3C
F0
F0
ENDCHAR
STARTCHAR 003C
ENCODING 60
SWIDTH 591 0
DWIDTH 23 0
BBX 15 28 4 2
BITMAP
001E
007E
007E
01F8
01F8
03E0
03E0
0F80
0F80
3E00
3E00
FC00
FC00
F000
F000
FC00
FE00
3E00
0F80
0F80
03E0
03E0
01F8
01F8
007E
007E
001E
001E
ENDCHAR
STARTCHAR 003D
ENCODING 61
SWIDTH 591 0
DWIDTH 23 0
BBX 19 12 2 9
BITMAP
FFFFE0
FFFFE0
FFFFE0
FFFFE0
000000
000000
000000
000000
FFFFE0
FFFFE0
FFFFE0
FFFFE0
ENDCHAR
STARTCHAR 003E
ENCODING 62
SWIDTH 591 0
DWIDTH 23 0
BBX 15 28 4 2
BITMAP
F000
FC00
FC00
3E00
3E00
0F80
0F80
03E0
03E0
01F8
01F8
007E
007E
001E
001E
007E
0078
01F8
03E0
03E0
0F80
0F80
3E00
3E00
FC00
FC00
F000
F000
ENDCHAR
STARTCHAR 003F
ENCODING 63
SWIDTH 591 0
DWIDTH 23 0
BBX 19 27 2 2
BITMAP
0FFE00
0FFE00
3FFF80
3FFF80
FC07E0
FC07E0
F001E0
F001E0
0001E0
0001E0
0007E0
0007E0
001F80
001F80
007E00
007E00
00F800
00E000
00E000
000000
000000
000000
000000
00E000
00E000
00E000
00E000
ENDCHAR
STARTCHAR 0040
ENCODING 64
SWIDTH 591 0
DWIDTH 23 0
BBX 19 23 2 4
BITMAP
0FFE00
0FFE00
3C0780
3C0780
F001E0
F001E0
C39860
C39860
CF7860
CF7860
CF7860
CF7860
CF7860
CF7860
CF79E0
CF79E0
C3E780
C3E780
F00000
3C0780
3C0780
0FFE00
0FFE00
ENDCHAR
STARTCHAR 0041
ENCODING 65
SWIDTH 591 0
DWIDTH 23 0
BBX 19 27 2 2
BITMAP
00E000
00E000
03F800
03F800
0FFE00
0FFE00
3F1F80
3F1F80
FC07E0
FC07E0
F001E0
F001E0
F001E0
F001E0
F001E0
F001E0
FFFFE0
FFFFE0
FFFFE0
FFFFE0
F001E0
F001E0
F001E0
F001E0
F001E0
F001E0
F001E0
ENDCHAR
STARTCHAR 0042
ENCODING 66
SWIDTH 591 0
DWIDTH 23 0
BBX 19 27 2 2
BITMAP
FFFE00
FFFE00
FFFF80
FFFF80
F007E0
F007E0
F001E0
F001E0
F001E0
F001E0
F007E0
F007E0
FFFF80
FFFF80
FFFF80
FFFF80
F007E0
F007E0
F001E0
F001E0
F001E0
F007E0
F007E0
FFFF80
FFFF80
FFFE00
FFFE00
ENDCHAR
STARTCHAR 0043
ENCODING 67
SWIDTH 591 0
DWIDTH 23 0
BBX 19 27 2 2
BITMAP
0FFE00
0FFE00
3FFF80
3FFF80
FC07E0
FC07E0
F001E0
F001E0
F00000
F00000
F00000
F00000
F00000
F00000
F00000
F00000
F00000
F00000
F00000
F001E0
F001E0
FC07E0
FC07E0
3FFF80
3FFF80
0FFE00
0FFE00
ENDCHAR
STARTCHAR 0044
ENCODING 68
SWIDTH 591 0
DWIDTH 23 0
BBX 19 27 2 2
BITMAP
FFFE00
FFFE00
FFFF80
FFFF80
F007E0
F007E0
F001E0
F001E0
F001E0
F001E0
F001E0
F001E0
F001E0
F001E0
F001E0
F001E0
F001E0
F001E0
F001E0
F001E0
F001E0
F007E0
F007E0
FFFF80
FFFF80
FFFE00
FFFE00
ENDCHAR
STARTCHAR 0045
ENCODING 69
SWIDTH 591 0
DWIDTH 23 0
BBX 19 27 2 2
BITMAP
FFFFE0
FFFFE0
FFFFE0
FFFFE0
F00000
F00000
F00000
F00000
F00000
F00000
F00000
F00000
FFFE00
FFFE00
FFFE00
FFFE00
F00000
F00000
F00000
F00000
F00000
F00000
F00000
FFFFE0
FFFFE0
FFFFE0
FFFFE0
ENDCHAR
STARTCHAR 0046
ENCODING 70
SWIDTH 591 0
DWIDTH 23 0
BBX 19 27 2 2
BITMAP
FFFFE0
FFFFE0
FFFFE0
FFFFE0
F00000
F00000
F00000
F00000
F00000
F00000
F00000
F00000
FFFE00
FFFE00
FFFE00
FFFE00
F00000
F00000
F00000
F00000
F00000
F00000
F00000
F00000
F00000
F00000
F00000
ENDCHAR
STARTCHAR 0047
ENCODING 71
SWIDTH 591 0
DWIDTH 23 0
BBX 19 27 2 2
BITMAP
0FFE00
0FFE00
3FFF80
3FFF80
FC07E0
FC07E0
F001E0
F001E0
F00000
F00000
F00000
F00000
F07FE0
F07FE0
F07FE0
F07FE0
F001E0
F001E0
F001E0
F001E0
F001E0
FC07E0
FC07E0
3FFF80
3FFF80
0FFE00
0FFE00
ENDCHAR
STARTCHAR 0048
ENCODING 72
SWIDTH 591 0
DWIDTH 23 0
BBX 19 27 2 2
BITMAP
F001E0
F001E0
F001E0
F001E0
F001E0
F001E0
F001E0
F001E0
F001E0
F001E0
F001E0
F001E0
FFFFE0
FFFFE0
FFFFE0
FFFFE0
F001E0
F001E0
F001E0
F001E0
F001E0
F001E0
F001E0
F001E0
F001E0
F001E0
F001E0
ENDCHAR
STARTCHAR 0049
ENCODING 73
SWIDTH 591 0
DWIDTH 23 0
BBX 11 27 6 2
BITMAP
FFE0
FFE0
FFE0
FFE0
0E00
0E00
0E00
0E00
0E00
0E00
0E00
0E00
0E00
0E00
0E00
0E00
0E00
0E00
0E00
0E00
0E00
0E00
0E00
FFE0
FFE0
FFE0
FFE0
ENDCHAR
STARTCHAR 004A
ENCODING 74
SWIDTH 591 0
DWIDTH 23 0
BBX 19 27 2 2
BITMAP
00FFE0
00FFE0
00FFE0
00FFE0
001E00
001E00
001E00
001E00
001E00
001E00
001E00
001E00
001E00
001E00
001E00
001E00
001E00
001E00
001E00
F01E00
F01E00
FC7E00
FC7E00
3FF800
3FF800
0FE000
0FE000
ENDCHAR
STARTCHAR 004B
ENCODING 75
SWIDTH 591 0
DWIDTH 23 0
BBX 19 27 2 2
BITMAP
F001E0
F001E0
F007E0
F007E0
F01F80
F01F80
F07E00
F07E00
F0F800
F0F800
F3E000
F3E000
FF8000
FF8000
FF8000
FFE000
F3E000
F0F800
F0F800
F07E00
F07E00
F01F80
F01F80
F007E0
F007E0
F001E0
F001E0
ENDCHAR
STARTCHAR 004C
ENCODING 76
SWIDTH 591 0
DWIDTH 23 0
BBX 19 27 2 2
BITMAP
F00000
F00000
F00000
F00000
F00000
F00000
F00000
F00000
F00000
F00000
F00000
F00000
F00000
F00000
F00000
F00000
F00000
F00000
F00000
F00000
F00000
F00000
F00000
FFFFE0
FFFFE0
FFFFE0
FFFFE0
ENDCHAR
STARTCHAR 004D
ENCODING 77
SWIDTH 591 0
DWIDTH 23 0
BBX 19 27 2 2
BITMAP
F001E0
F001E0
F001E0
F001E0
FC07E0
FC07E0
FF1FE0
FF1FE0
FFFFE0
FFFFE0
F3F9E0
F3F9E0
F0E1E0
F0E1E0
F0E1E0
F0E1E0
F001E0
F001E0
F001E0
F001E0
F001E0
F001E0
F001E0
F001E0
F001E0
F001E0
F001E0
ENDCHAR
STARTCHAR 004E
ENCODING 78
SWIDTH 591 0
DWIDTH 23 0
BBX 19 27 2 2
BITMAP
F001E0
F001E0
F001E0
F001E0
F001E0
F001E0
FC01E0
FC01E0
FF01E0
FF01E0
FF81E0
FFE1E0
F3E1E0
F3F9E0
F0F9E0
F0FFE0
F07FE0
F01FE0
F01FE0
F007E0
F007E0
F001E0
F001E0
F001E0
F001E0
F001E0
F001E0
ENDCHAR
STARTCHAR 004F
ENCODING 79
SWIDTH 591 0
DWIDTH 23 0
BBX 19 27 2 2
BITMAP
0FFE00
0FFE00
3FFF80
3FFF80
FC07E0
FC07E0
F001E0
F001E0
F001E0
F001E0
F001E0
F001E0
F001E0
F001E0
F001E0
F001E0
F001E0
F001E0
F001E0
F001E0
F001E0
FC07E0
FC07E0
3FFF80
3FFF80
0FFE00
0FFE00
ENDCHAR
STARTCHAR 0050
ENCODING 80
SWIDTH 591 0
DWIDTH 23 0
BBX 19 27 2 2
BITMAP
FFFE00
FFFE00
FFFF80
FFFF80
F007E0
F007E0
F001E0
F001E0
F001E0
F001E0
F007E0
F007E0
FFFF80
FFFF80
FFFE00
FFFE00
F00000
F00000
F00000
F00000
F00000
F00000
F00000
F00000
F00000
F00000
F00000
ENDCHAR
STARTCHAR 0051
ENCODING 81
SWIDTH 591 0
DWIDTH 23 0
BBX 19 27 2 2
BITMAP
0FFE00
0FFE00
3FFF80
3FFF80
FC07E0
FC07E0
F001E0
F001E0
F001E0
F001E0
F001E0
F001E0
F001E0
F001E0
F001E0
F001E0
F0E1E0
F0E1E0
F0F9E0
F0F9E0
F07FE0
F07FE0
FC1F80
3FFFE0
3FFFE0
0FE1E0
0FE1E0
ENDCHAR
STARTCHAR 0052
ENCODING 82
SWIDTH 591 0
DWIDTH 23 0
BBX 19 27 2 2
BITMAP
FFFE00
FFFE00
FFFF80
FFFF80
F007E0
F007E0
F001E0
F001E0
F001E0
F001E0
F007E0
F007E0
FFFF80
FFFF80
FFFE00
FFFE00
F3E000
F3E000
F0F800
F0F800
F07E00
F07F80
F01F80
F007E0
F007E0
F001E0
F001E0
ENDCHAR
STARTCHAR 0053
ENCODING 83
SWIDTH 591 0
DWIDTH 23 0
BBX 19 27 2 2
BITMAP
0FFE00
0FFE00
3FFF80
3FFF80
FC07E0
FC07E0
F001E0
F001E0
F00000
F00000
FC0000
FC0000
3FFE00
3FFE00
0FFF80
0FFF80
0007E0
0007E0
0001E0
F001E0
F001E0
FC07E0
FC07E0
3FFF80
3FFF80
0FFE00
0FFE00
ENDCHAR
STARTCHAR 0054
ENCODING 84
SWIDTH 591 0
DWIDTH 23 0
BBX 19 27 2 2
BITMAP
FFFFE0
FFFFE0
FFFFE0
FFFFE0
00E000
00E000
00E000
00E000
00E000
00E000
00E000
00E000
00E000
00E000
00E000
00E000
00E000
00E000
00E000
00E000
00E000
00E000
00E000
00E000
00E000
00E000
00E000
ENDCHAR
STARTCHAR 0055
ENCODING 85
SWIDTH 591 0
DWIDTH 23 0
BBX 19 27 2 2
BITMAP
F001E0
F001E0
F001E0
F001E0
F001E0
F001E0
F001E0
F001E0
F001E0
F001E0
F001E0
F001E0
F001E0
F001E0
F001E0
F001E0
F001E0
F001E0
F001E0
F001E0
F001E0
FC07E0
FC07E0
3FFF80
3FFF80
0FFE00
0FFE00
ENDCHAR
STARTCHAR 0056
ENCODING 86
SWIDTH 591 0
DWIDTH 23 0
BBX 19 27 2 2
BITMAP
F001E0
F001E0
F001E0
F001E0
F001E0
F001E0
F001E0
F001E0
F001E0
F001E0
F001E0
F001E0
F001E0
F001E0
F001E0
F001E0
F001E0
FC07E0
FC07E0
3F1F80
3F1F80
0FFE00
0FFE00
03F800
03F800
00E000
00E000
ENDCHAR
STARTCHAR 0057
ENCODING 87
SWIDTH 591 0
DWIDTH 23 0
BBX 19 27 2 2
BITMAP
F001E0
F001E0
F001E0
F001E0
F001E0
F001E0
F001E0
F001E0
F001E0
F001E0
F001E0
F0E1E0
F0E1E0
F0E1E0
F0E1E0
F0E1E0
F0E1E0
F0E1E0
F0E1E0
F0E1E0
F0E1E0
FFFFE0
FFFFE0
3FFF80
3FFF80
0F1E00
0F1E00
ENDCHAR
STARTCHAR 0058
ENCODING 88
SWIDTH 591 0
DWIDTH 23 0
BBX 19 27 2 2
BITMAP
F001E0
F001E0
F001E0
F001E0
F001E0
F001E0
FC07E0
FC07E0
3F1F80
1F1F80
0FFE00
0FFE00
03F800
03F800
03F800
03F800
0FFE00
3F1F80
3F1F80
FC07E0
FC07E0
FC07E0
F001E0
F001E0
F001E0
F001E0
F001E0
ENDCHAR
STARTCHAR 0059
ENCODING 89
SWIDTH 591 0
DWIDTH 23 0
BBX 19 27 2 2
BITMAP
F001E0
F001E0
F001E0
F001E0
F001E0
F001E0
F001E0
F001E0
F001E0
F001E0
FC07E0
FC07E0
3F1F80
3F1F80
0FFE00
0FFE00
03F800
03F800
00E000
00E000
00E000
00E000
00E000
00E000
00E000
00E000
00E000
ENDCHAR
STARTCHAR 005A
ENCODING 90
SWIDTH 591 0
DWIDTH 23 0
BBX 19 27 2 2
BITMAP
FFFFE0
FFFFE0
FFFFE0
FFFFE0
0001E0
0001E0
0007E0
0007E0
001F80
001F80
007E00
007800
00F800
00E000
03E000
038000
0F8000
3F0000
3F0000
FC0000
FC0000
F00000
F00000
FFFFE0
FFFFE0
FFFFE0
FFFFE0
ENDCHAR
STARTCHAR 005B
ENCODING 91
SWIDTH 591 0
DWIDTH 23 0
BBX 11 30 8 2
BITMAP
FFE0
FFE0
FFE0
FFE0
E000
E000
E000
E000
E000
E000
E000
E000
E000
E000
E000
E000
E000
E000
E000
E000
E000
E000
E000
E000
E000
E000
FFE0
FFE0
FFE0
FFE0
ENDCHAR
STARTCHAR 005C
ENCODING 92
SWIDTH 591 0
DWIDTH 23 0
BBX 19 27 2 2
BITMAP
F00000
F00000
F00000
F00000
F00000
F00000
FC0000
FC0000
3F0000
3F0000
0F8000
0F8000
03E000
03F800
00F800
007E00
007E00
001F80
001F80
0007E0
0007E0
0001E0
0001E0
0001E0
0001E0
0001E0
0001E0
ENDCHAR
STARTCHAR 005D
ENCODING 93
SWIDTH 591 0
DWIDTH 23 0
BBX 11 30 4 2
BITMAP
FFE0
FFE0
FFE0
FFE0
01E0
01E0
01E0
01E0
01E0
01E0
01E0
01E0
01E0
01E0
01E0
01E0
01E0
01E0
01E0
01E0
01E0
01E0
01E0
01E0
01E0
01E0
FFE0
FFE0
FFE0
FFE0
ENDCHAR
STARTCHAR 005E
ENCODING 94
SWIDTH 591 0
DWIDTH 23 0
BBX 19 10 2 19
BITMAP
00E000
00E000
03F800
03F800
0FFE00
0FFE00
3F1F80
3F1F80
FC07E0
FC07E0
ENDCHAR
STARTCHAR 005F
ENCODING 95
SWIDTH 591 0
DWIDTH 23 0
BBX 23 4 0 0
BITMAP
FFFFFE
FFFFFE
FFFFFE
FFFFFE
ENDCHAR
STARTCHAR 0060
ENCODING 96
SWIDTH 591 0
DWIDTH 23 0
BBX 9 6 6 23
BITMAP
F800
F800
3E00
3E00
0780
0780
ENDCHAR
STARTCHAR 0061
ENCODING 97
SWIDTH 591 0
DWIDTH 23 0
BBX 19 23 2 2
BITMAP
0FFE00
0FFE00
0FFF80
0FFF80
0007E0
0007E0
0001E0
0001E0
0FF9E0
0FF9E0
3FFFE0
3FFFE0
FC07E0
FC07E0
F001E0
F001E0
F001E0
FC07E0
FC07E0
3FFFE0
3FFFE0
0FF9E0
0FF9E0
ENDCHAR
STARTCHAR 0062
ENCODING 98
SWIDTH 591 0
DWIDTH 23 0
BBX 19 27 2 2
BITMAP
F00000
F00000
F00000
F00000
F00000
F00000
F0F800
F0F800
F3FE00
F3FE00
FF9F80
FF9F80
FF07E0
FF07E0
FC01E0
FC01E0
FC01E0
FC01E0
FC01E0
FF07E0
FF07E0
FF9F80
FF9F80
F3FE00
F3FE00
F0F800
F0F800
ENDCHAR
STARTCHAR 0063
ENCODING 99
SWIDTH 591 0
DWIDTH 23 0
BBX 19 21 2 2
BITMAP
0FFE00
0FFE00
3FFF80
3FFF80
FC07E0
FC07E0
F001E0
F001E0
F00000
F00000
F00000
F00000
F00000
F001E0
F001E0
FC07E0
FC07E0
3FFF80
3FFF80
0FFE00
0FFE00
ENDCHAR
STARTCHAR 0064
ENCODING 100
SWIDTH 591 0
DWIDTH 23 0
BBX 19 27 2 2
BITMAP
0001E0
0001E0
0001E0
0001E0
0001E0
0001E0
03E1E0
03E1E0
0FF9E0
0FF9E0
3F7FE0
3F7FE0
FC1FE0
FC1FE0
F007E0
F007E0
F007E0
F007E0
F007E0
FC1FE0
FC1FE0
3F7FE0
3F7FE0
0FF9E0
0FF9E0
03E1E0
03E1E0
ENDCHAR
STARTCHAR 0065
ENCODING 101
SWIDTH 591 0
DWIDTH 23 0
BBX 19 21 2 2
BITMAP
0FFE00
0FFE00
3FFF80
3FFF80
FC07E0
FC07E0
F001E0
F001E0
FFFFE0
FFFFE0
FFFF80
FFFF80
F00000
F00000
F00000
FC07E0
FC07E0
3FFF80
3FFF80
0FFE00
0FFE00
ENDCHAR
STARTCHAR 0066
ENCODING 102
SWIDTH 591 0
DWIDTH 23 0
BBX 15 27 4 2
BITMAP
01FE
01FE
03FE
03FE
0380
0380
FFFE
FFFE
FFFE
FFFE
0380
0380
0380
0380
0380
0380
0380
0380
0380
0380
0380
0380
0380
0380
0380
0380
0380
ENDCHAR
STARTCHAR 0067
ENCODING 103
SWIDTH 591 0
DWIDTH 23 0
BBX 19 23 2 2
BITMAP
0FFE00
0FFE00
3FFF80
3FFF80
FC07E0
FC07E0
F001E0
F001E0
FC07E0
FC07E0
3FFFE0
3FFFE0
0FF9E0
0FF9E0
0001E0
0001E0
0001E0
3C07E0
3C07E0
3FFF80
3FFF80
0FFE00
0FFE00
ENDCHAR
STARTCHAR 0068
ENCODING 104
SWIDTH 591 0
DWIDTH 23 0
BBX 19 27 2 2
BITMAP
F00000
F00000
F00000
F00000
F00000
F00000
F0F800
F0F800
F3FE00
F3FE00
FF9F80
FF9F80
FF07E0
FF07E0
FC01E0
FC01E0
F001E0
F001E0
F001E0
F001E0
F001E0
F001E0
F001E0
F001E0
F001E0
F001E0
F001E0
ENDCHAR
STARTCHAR 0069
ENCODING 105
SWIDTH 591 0
DWIDTH 23 0
BBX 11 25 6 2
BITMAP
0E00
0E00
0E00
0E00
0000
0000
0000
0000
FE00
FE00
FE00
FE00
0E00
0E00
0E00
0E00
0E00
0E00
0E00
0F80
0F80
07E0
07E0
01E0
01E0
ENDCHAR
STARTCHAR 006A
ENCODING 106
SWIDTH 591 0
DWIDTH 23 0
BBX 11 29 6 2
BITMAP
01E0
01E0
01E0
01E0
0000
0000
0000
0000
0FE0
0FE0
0FE0
0FE0
01E0
01E0
01E0
01E0
01E0
01E0
01E0
01E0
01E0
01E0
01E0
07E0
07E0
FF80
FF80
FE00
FE00
ENDCHAR
STARTCHAR 006B
ENCODING 107
SWIDTH 591 0
DWIDTH 23 0
BBX 19 27 2 2
BITMAP
F00000
F00000
F00000
F00000
F00000
F00000
F001E0
F007E0
F007E0
F01F80
F01F80
F07E00
F07E00
F0F800
F0F800
F3E000
F3E000
FFF800
FFF800
FF7E00
FF7E00
FC1F80
FC1F80
F007E0
F007E0
F001E0
F001E0
ENDCHAR
STARTCHAR 006C
ENCODING 108
SWIDTH 591 0
DWIDTH 23 0
BBX 3 27 10 2
BITMAP
E0
E0
E0
E0
E0
E0
E0
E0
E0
E0
E0
E0
E0
E0
E0
E0
E0
E0
E0
E0
E0
E0
E0
E0
E0
E0
E0
ENDCHAR
STARTCHAR 006D
ENCODING 109
SWIDTH 591 0
DWIDTH 23 0
BBX 19 21 2 2
BITMAP
F3FE00
F3FE00
FFFF80
FFFF80
FCE7E0
FCE7E0
F0E1E0
F0E1E0
F0E1E0
F0E1E0
F0E1E0
F0E1E0
F0E1E0
F0E1E0
F0E1E0
F0E1E0
F0E1E0
F0E1E0
F0E1E0
F0E1E0
F0E1E0
ENDCHAR
STARTCHAR 006E
ENCODING 110
SWIDTH 591 0
DWIDTH 23 0
BBX 19 21 2 2
BITMAP
F3FE00
F3FE00
FFFF80
FFFF80
FC07E0
FC07E0
F001E0
F001E0
F001E0
F001E0
F001E0
F001E0
F001E0
F001E0
F001E0
F001E0
F001E0
F001E0
F001E0
F001E0
F001E0
ENDCHAR
STARTCHAR 006F
ENCODING 111
SWIDTH 591 0
DWIDTH 23 0
BBX 19 21 2 2
BITMAP
0FFE00
0FFE00
3FFF80
3FFF80
FC07E0
FC07E0
F001E0
F001E0
F001E0
F001E0
F001E0
F001E0
F001E0
F001E0
F001E0
FC07E0
FC07E0
3FFF80
3FFF80
0FFE00
0FFE00
ENDCHAR
STARTCHAR 0070
ENCODING 112
SWIDTH 591 0
DWIDTH 23 0
BBX 19 23 2 2
BITMAP
F3FE00
F3FE00
FFFF80
FFFF80
FF07E0
FF07E0
FC01E0
FC01E0
FC01E0
FC01E0
FC01E0
FC01E0
FF07E0
FF07E0
FFFF80
FFFF80
F3FE00
F3FE00
F00000
F00000
F00000
F00000
F00000
ENDCHAR
STARTCHAR 0071
ENCODING 113
SWIDTH 591 0
DWIDTH 23 0
BBX 19 23 2 2
BITMAP
0FF9E0
0FF9E0
3FFFE0
3FFFE0
FC1FE0
FC1FE0
F007E0
F007E0
F007E0
F007E0
F007E0
F007E0
FC1FE0
3FFFE0
3FFFE0
3FFFE0
0FE7E0
0001E0
0001E0
0001E0
0001E0
0001E0
0001E0
ENDCHAR
STARTCHAR 0072
ENCODING 114
SWIDTH 591 0
DWIDTH 23 0
BBX 19 21 2 2
BITMAP
F0FE00
F0FE00
F3FF80
F3FF80
FF87E0
FF87E0
FF01E0
FF01E0
FC0000
FC0000
F00000
F00000
F00000
F00000
F00000
F00000
F00000
F00000
F00000
F00000
F00000
ENDCHAR
STARTCHAR 0073
ENCODING 115
SWIDTH 591 0
DWIDTH 23 0
BBX 19 21 2 2
BITMAP
0FFE00
0FFE00
3FFF80
3FFF80
FC07E0
FC07E0
FC01E0
FC01E0
3FE000
0FF800
03FE00
03FE00
007F80
F007E0
F007E0
FC07E0
FC07E0
3FFF80
3FFF80
0FFE00
0FFE00
ENDCHAR
STARTCHAR 0074
ENCODING 116
SWIDTH 591 0
DWIDTH 23 0
BBX 11 27 6 2
BITMAP
0E00
0E00
0E00
0E00
0E00
0E00
FFE0
FFE0
FFE0
FFE0
0E00
0E00
0E00
0E00
0E00
0E00
0E00
0E00
0E00
0E00
0E00
0F80
0F80
07E0
07E0
01E0
01E0
ENDCHAR
STARTCHAR 0075
ENCODING 117
SWIDTH 591 0
DWIDTH 23 0
BBX 19 21 2 2
BITMAP
F001E0
F001E0
F001E0
F001E0
F001E0
F001E0
F001E0
F001E0
F001E0
F001E0
F001E0
F001E0
F001E0
F001E0
F001E0
FC07E0
FC07E0
3FFF80
3FFF80
0FFE00
0FFE00
ENDCHAR
STARTCHAR 0076
ENCODING 118
SWIDTH 591 0
DWIDTH 23 0
BBX 19 21 2 2
BITMAP
F001E0
F001E0
F001E0
F001E0
F001E0
F001E0
F001E0
F001E0
F001E0
F001E0
F001E0
FC07E0
FC07E0
3F1F80
3F1F80
0FFE00
0FFE00
03F800
03F800
00E000
00E000
ENDCHAR
STARTCHAR 0077
ENCODING 119
SWIDTH 591 0
DWIDTH 23 0
BBX 19 21 2 2
BITMAP
F001E0
F001E0
F001E0
F001E0
F001E0
F001E0
F001E0
F0E1E0
F0E1E0
F0E1E0
F0E1E0
F0E1E0
F0E1E0
F0E1E0
F0E1E0
FCE7E0
FCE7E0
3FFF80
3FFF80
0F1E00
0F1E00
ENDCHAR
STARTCHAR 0078
ENCODING 120
SWIDTH 591 0
DWIDTH 23 0
BBX 19 21 2 2
BITMAP
F001E0
F001E0
FC07E0
FC07E0
3F1F80
3F1F80
0FFE00
0FFE00
03F800
03F800
00E000
03F800
03F800
0FFE00
0FFE00
1F9F00
3F1F80
FC07E0
FC07E0
F001E0
F001E0
ENDCHAR
STARTCHAR 0079
ENCODING 121
SWIDTH 591 0
DWIDTH 23 0
BBX 19 23 2 2
BITMAP
F001E0
F001E0
F001E0
F001E0
F007E0
F007E0
F007E0
F007E0
F01FE0
F01FE0
FC7FE0
FC7FE0
3FF9E0
3FF9E0
0FE1E0
0FE1E0
0001E0
0007E0
0007E0
0FFF80
0FFF80
0FFE00
0FFE00
ENDCHAR
STARTCHAR 007A
ENCODING 122
SWIDTH 591 0
DWIDTH 23 0
BBX 19 21 2 2
BITMAP
FFFFE0
FFFFE0
FFFFE0
FFFFE0
0007E0
0007E0
001F80
001F80
007E00
007800
00F800
03E000
03E000
0F8000
0F8000
3F0000
3F0000
FFFFE0
FFFFE0
FFFFE0
FFFFE0
ENDCHAR
STARTCHAR 007B
ENCODING 123
SWIDTH 591 0
DWIDTH 23 0
BBX 11 31 6 2
BITMAP
07E0
07E0
07E0
07E0
0FE0
0FE0
0E00
0E00
0E00
0E00
0E00
0E00
0E00
0E00
F800
F800
F800
F800
0E00
0E00
0E00
0E00
0E00
0E00
0E00
0FE0
0FE0
07E0
07E0
07E0
07E0
ENDCHAR
STARTCHAR 007C
ENCODING 124
SWIDTH 591 0
DWIDTH 23 0
BBX 3 30 10 2
BITMAP
E0
E0
E0
E0
E0
E0
E0
E0
E0
E0
E0
E0
E0
E0
E0
E0
E0
E0
E0
E0
E0
E0
E0
E0
E0
E0
E0
E0
E0
E0
ENDCHAR
STARTCHAR 007D
ENCODING 125
SWIDTH 591 0
DWIDTH 23 0
BBX 11 31 6 2
BITMAP
F800
F800
F800
F800
FE00
FE00
0E00
0E00
0E00
0E00
0E00
0E00
0E00
0E00
07E0
07E0
07E0
07E0
0E00
0E00
0E00
0E00
0E00
0E00
0E00
FE00
FE00
F800
F800
F800
F800
ENDCHAR
STARTCHAR 007E
ENCODING 126
SWIDTH 591 0
DWIDTH 23 0
BBX 19 8 2 11
BITMAP
0F8060
0F8060
3FE1E0
3FE1E0
F0FF80
F0FF80
C07E00
C07E00
ENDCHAR
STARTCHAR 00A0
ENCODING 160
SWIDTH 591 0
DWIDTH 23 0
BBX 0 0 0 0
BITMAP
ENDCHAR
STARTCHAR 00A1
ENCODING 161
SWIDTH 591 0
DWIDTH 23 0
BBX 4 27 11 2
BITMAP
F0
F0
F0
F0
00
00
00
00
F0
F0
F0
F0
F0
F0
F0
F0
F0
F0
F0
F0
F0
F0
F0
F0
F0
F0
F0
ENDCHAR
STARTCHAR 00A2
ENCODING 162
SWIDTH 591 0
DWIDTH 23 0
BBX 19 27 2 2
BITMAP
00E000
00E000
00E000
00E000
0FFE00
0FFE00
3FFF80
3FFF80
FCE7E0
FCE7E0
F0E1E0
F0E1E0
F0E000
F0E000
F0E000
F0E000
F0E1E0
FCE7E0
FCE7E0
BDF7C0
3FFF80
3FFF80
0FFE00
00E000
00E000
00E000
00E000
ENDCHAR
STARTCHAR 00A3
ENCODING 163
SWIDTH 591 0
DWIDTH 23 0
BBX 19 30 2 2
BITMAP
00FE00
03FF80
03FF80
0BE7C0
0F87E0
0F87E0
0F01E0
0F0000
0F0000
0F0000
0F0000
FFFE00
FFFE00
FFFE00
FFFE00
0F0000
0F0000
0F0000
0F0000
0F0000
0F0000
0F0000
0F0000
0F0000
3C0000
3C0000
FFFFE0
FFFFE0
FFFFE0
FFFFE0
ENDCHAR
STARTCHAR 00A5
ENCODING 165
SWIDTH 591 0
DWIDTH 23 0
BBX 15 27 4 2
BITMAP
F01E
F01E
F01E
F01E
F01E
F01E
3C78
3C78
3C78
3C78
0FE0
0FE0
0FE0
0FE0
0380
0380
FFFE
FFFE
0380
0380
0380
FFFE
FFFE
0380
0380
0380
0380
ENDCHAR
STARTCHAR 00A6
ENCODING 166
SWIDTH 591 0
DWIDTH 23 0
BBX 3 30 10 2
BITMAP
E0
E0
E0
E0
E0
E0
E0
E0
E0
E0
E0
E0
E0
00
00
00
00
E0
E0
E0
E0
E0
E0
E0
E0
E0
E0
E0
E0
E0
ENDCHAR
STARTCHAR 00A8
ENCODING 168
SWIDTH 591 0
DWIDTH 23 0
BBX 11 4 6 25
BITMAP
F1E0
F1E0
F1E0
F1E0
ENDCHAR
STARTCHAR 00A9
ENCODING 169
SWIDTH 591 0
DWIDTH 23 0
BBX 19 21 2 6
BITMAP
0FFE00
0FFE00
3C0780
3C0780
F0F9E0
F0F9E0
C38060
C38060
C30060
C30060
C30060
C30060
C30060
C38060
C38060
F0F9E0
F0F9E0
3C0780
3C0780
0FFE00
0FFE00
ENDCHAR
STARTCHAR 00AA
ENCODING 170
SWIDTH 591 0
DWIDTH 23 0
BBX 13 21 4 8
BITMAP
3FE0
3FE0
F078
F078
0078
0078
3FF8
3FF8
F078
F078
C078
C078
F078
F078
3F98
3F98
0000
FFF8
FFF8
FFF8
FFF8
ENDCHAR
STARTCHAR 00AB
ENCODING 171
SWIDTH 591 0
DWIDTH 23 0
BBX 19 17 2 6
BITMAP
008060
008060
0381E0
0381E0
0F0780
0F0780
3C1E00
783A00
F07800
3C1E00
3C1E00
4F1780
0F0780
0381E0
0381E0
008060
008060
ENDCHAR
STARTCHAR 00AD
ENCODING 173
SWIDTH 591 0
DWIDTH 23 0
BBX 15 4 4 13
BITMAP
FFFE
FFFE
FFFE
FFFE
ENDCHAR
STARTCHAR 00AE
ENCODING 174
SWIDTH 591 0
DWIDTH 23 0
BBX 19 20 2 9
BITMAP
0FFE00
0FFE00
3C0780
3C0780
F3E1E0
F3E1E0
C31860
C31860
C31860
C31860
C3E060
C3E060
C31860
C31860
F319E0
F319E0
3C0780
3C0780
0FFE00
0FFE00
ENDCHAR
STARTCHAR 00B0
ENCODING 176
SWIDTH 591 0
DWIDTH 23 0
BBX 15 16 2 13
BITMAP
0FE0
0FE0
3FF8
3FF8
FC7E
FC7E
F01E
F01E
F01E
F01E
FC7E
FC7E
3FF8
3FF8
0FE0
0FE0
ENDCHAR
STARTCHAR 00B2
ENCODING 178
SWIDTH 591 0
DWIDTH 23 0
BBX 9 14 6 19
BITMAP
3E00
3E00
F780
F780
0780
0780
3E00
3E00
F000
F000
F000
F000
FF80
FF80
ENDCHAR
STARTCHAR 00B3
ENCODING 179
SWIDTH 591 0
DWIDTH 23 0
BBX 9 13 6 19
BITMAP
3E00
3E00
F780
F780
0780
0E00
0E00
0780
0780
F780
F780
3E00
3E00
ENDCHAR
STARTCHAR 00B4
ENCODING 180
SWIDTH 591 0
DWIDTH 23 0
BBX 9 6 8 23
BITMAP
1F80
1F80
3E00
3E00
E000
E000
ENDCHAR
STARTCHAR 00B9
ENCODING 185
SWIDTH 591 0
DWIDTH 23 0
BBX 7 13 8 19
BITMAP
38
38
F8
38
38
38
38
38
38
38
38
FE
FE
ENDCHAR
STARTCHAR 00BA
ENCODING 186
SWIDTH 591 0
DWIDTH 23 0
BBX 13 21 4 8
BITMAP
0F80
0F80
3FE0
3FE0
F078
F078
F078
F078
F078
F078
F078
F078
3FE0
3FE0
0F80
0F80
0000
FFF8
FFF8
FFF8
FFF8
ENDCHAR
STARTCHAR 00BB
ENCODING 187
SWIDTH 591 0
DWIDTH 23 0
BBX 19 17 2 6
BITMAP
C06000
C06000
F07800
F07800
3C1E00
1D1E80
0F0780
0F0780
0381E0
0B03C0
0F0780
3C1E00
3C1E00
F07800
F07800
C06000
C06000
ENDCHAR
STARTCHAR 00BC
ENCODING 188
SWIDTH 591 0
DWIDTH 23 0
BBX 19 31 2 2
BITMAP
3C0180
3C0180
FC0780
FC0780
3C0600
3C0600
3C1E00
3C1E00
3C1800
3C1800
3C7800
3C7800
FF6000
FF6000
00E000
00E000
038000
038000
030780
0F1F80
0F1F80
0F1F80
0C1980
3C7980
3C7980
307FE0
307FE0
F00180
F00180
C00180
C00180
ENDCHAR
STARTCHAR 00BD
ENCODING 189
SWIDTH 591 0
DWIDTH 23 0
BBX 19 30 2 2
BITMAP
3C0180
3C0180
FC0780
FC0780
3C0600
3C0600
3C1E00
3C1800
3C1800
3C7800
3C7800
FF6000
FF6000
00E000
00E000
038000
038000
031F80
031F80
0F79E0
0F79E0
0C01E0
3C1F80
3C1F80
307800
307800
F07800
F07800
C07FE0
C07FE0
ENDCHAR
STARTCHAR 00BE
ENCODING 190
SWIDTH 591 0
DWIDTH 23 0
BBX 19 30 2 2
BITMAP
3F0060
3F0060
F381E0
F381E0
038180
0F0780
0F0780
038600
038600
F39E00
F39E00
3F1800
3F1800
007800
007800
00E000
00E000
008780
039F80
039F80
039F80
031980
0F7980
0F7980
0C7FE0
0C7FE0
3C0180
3C0180
300180
300180
ENDCHAR
STARTCHAR 00BF
ENCODING 191
SWIDTH 591 0
DWIDTH 23 0
BBX 19 27 2 2
BITMAP
00E000
00E000
00E000
00E000
000000
000000
000000
000000
00E000
00E000
03E000
0F8000
0F8000
3F0000
3F0000
FC0000
FC0000
F00000
F00000
F001E0
F001E0
FC07E0
FC07E0
3FFF80
3FFF80
0FFE00
0FFE00
ENDCHAR
STARTCHAR 00C0
ENCODING 192
SWIDTH 591 0
DWIDTH 23 0
BBX 19 30 2 2
BITMAP
0F8000
0F8000
03E000
03E000
007800
007800
000000
00E000
00E000
03F800
03F800
0FFE00
0FFE00
3F1F80
3F1F80
FC07E0
FC07E0
F001E0
F001E0
F001E0
FFFFE0
FFFFE0
FFFFE0
FFFFE0
F001E0
F001E0
F001E0
F001E0
F001E0
F001E0
ENDCHAR
STARTCHAR 00C1
ENCODING 193
SWIDTH 591 0
DWIDTH 23 0
BBX 19 30 2 2
BITMAP
007E00
007E00
00F800
00F800
038000
038000
000000
00E000
00E000
03F800
03F800
0FFE00
0FFE00
3F1F80
3F1F80
FC07E0
FC07E0
F001E0
F001E0
F001E0
FFFFE0
FFFFE0
FFFFE0
FFFFE0
F001E0
F001E0
F001E0
F001E0
F001E0
F001E0
ENDCHAR
STARTCHAR 00C2
ENCODING 194
SWIDTH 591 0
DWIDTH 23 0
BBX 19 31 2 2
BITMAP
00E000
00E000
03F800
03F800
0F1E00
0F1E00
000000
000000
00E000
00E000
03F800
03F800
0FFE00
0FFE00
3F1F80
3F1F80
FC07E0
FC07E0
F001E0
F001E0
F001E0
FFFFE0
FFFFE0
FFFFE0
FFFFE0
F001E0
F001E0
F001E0
F001E0
F001E0
F001E0
ENDCHAR
STARTCHAR 00C3
ENCODING 195
SWIDTH 591 0
DWIDTH 23 0
BBX 19 30 2 2
BITMAP
038600
0FFE00
0FFE00
0FFE00
0C7800
000000
000000
00E000
00E000
03F800
03F800
0FFE00
0FFE00
3F1F80
3F1F80
FC07E0
FC07E0
F001E0
F001E0
F001E0
FFFFE0
FFFFE0
FFFFE0
FFFFE0
F001E0
F001E0
F001E0
F001E0
F001E0
F001E0
ENDCHAR
STARTCHAR 00C4
ENCODING 196
SWIDTH 591 0
DWIDTH 23 0
BBX 19 30 2 2
BITMAP
0F1E00
0F1E00
0F1E00
0F1E00
000000
000000
000000
00E000
00E000
03F800
03F800
0FFE00
0FFE00
3F1F80
3F1F80
FC07E0
FC07E0
F001E0
F001E0
F001E0
FFFFE0
FFFFE0
FFFFE0
FFFFE0
F001E0
F001E0
F001E0
F001E0
F001E0
F001E0
ENDCHAR
STARTCHAR 00C5
ENCODING 197
SWIDTH 591 0
DWIDTH 23 0
BBX 19 30 2 2
BITMAP
00E000
00E000
031800
031800
031800
031800
00E000
00E000
00E000
03F800
03F800
0FFE00
0FFE00
3F1F80
3F1F80
FC07E0
FC07E0
F001E0
F001E0
F001E0
FFFFE0
FFFFE0
FFFFE0
FFFFE0
F001E0
F001E0
F001E0
F001E0
F001E0
F001E0
ENDCHAR
STARTCHAR 00C6
ENCODING 198
SWIDTH 591 0
DWIDTH 23 0
BBX 19 29 2 2
BITMAP
007FE0
007FE0
00FFE0
00FFE0
03F800
03F800
0FF800
0FF800
3F7800
3F7800
3C7800
3C7800
F07FE0
F07FE0
F07FE0
F07FE0
F07800
F07800
FFF800
FFF800
FFF800
FFF800
F07800
F07800
F07800
F07FE0
F07FE0
F07FE0
F07FE0
ENDCHAR
STARTCHAR 00C7
ENCODING 199
SWIDTH 591 0
DWIDTH 23 0
BBX 19 27 2 2
BITMAP
0FFE00
0FFE00
3FFF80
3FFF80
FC07E0
FC07E0
F001E0
F001E0
F00000
F00000
F00000
F00000
F00000
F00000
F001E0
F001E0
FC07E0
BFFF80
3FFF80
3FFF80
0FFE00
0CFA00
00F800
03E000
03E000
0F8000
0F8000
ENDCHAR
STARTCHAR 00C8
ENCODING 200
SWIDTH 591 0
DWIDTH 23 0
BBX 19 30 2 2
BITMAP
0F8000
0F8000
03E000
03E000
007800
007800
000000
FFFFE0
FFFFE0
FFFFE0
FFFFE0
F00000
F00000
F00000
F00000
F00000
F00000
FFFE00
FFFE00
FFFE00
FFFE00
F00000
F00000
F00000
F00000
F00000
FFFFE0
FFFFE0
FFFFE0
FFFFE0
ENDCHAR
STARTCHAR 00C9
ENCODING 201
SWIDTH 591 0
DWIDTH 23 0
BBX 19 30 2 2
BITMAP
007E00
007E00
00F800
00F800
038000
038000
000000
FFFFE0
FFFFE0
FFFFE0
FFFFE0
F00000
F00000
F00000
F00000
F00000
F00000
FFFE00
FFFE00
FFFE00
FFFE00
F00000
F00000
F00000
F00000
F00000
FFFFE0
FFFFE0
FFFFE0
FFFFE0
ENDCHAR
STARTCHAR 00CA
ENCODING 202
SWIDTH 591 0
DWIDTH 23 0
BBX 19 31 2 2
BITMAP
00E000
00E000
03F800
03F800
0F1E00
0F1E00
000000
000000
FFFFE0
FFFFE0
FFFFE0
FFFFE0
F00000
F00000
F00000
F00000
F00000
F00000
FFFE00
FFFE00
FFFE00
FFFE00
F00000
F00000
F00000
F00000
F00000
FFFFE0
FFFFE0
FFFFE0
FFFFE0
ENDCHAR
STARTCHAR 00CB
ENCODING 203
SWIDTH 591 0
DWIDTH 23 0
BBX 19 30 2 2
BITMAP
0F1E00
0F1E00
0F1E00
0F1E00
000000
000000
000000
FFFFE0
FFFFE0
FFFFE0
FFFFE0
F00000
F00000
F00000
F00000
F00000
F00000
FFFE00
FFFE00
FFFE00
FFFE00
F00000
F00000
F00000
F00000
F00000
FFFFE0
FFFFE0
FFFFE0
FFFFE0
ENDCHAR
STARTCHAR 00CC
ENCODING 204
SWIDTH 591 0
DWIDTH 23 0
BBX 11 30 6 2
BITMAP
F800
F800
3E00
3E00
0780
0780
0000
FFE0
FFE0
FFE0
FFE0
0E00
0E00
0E00
0E00
0E00
0E00
0E00
0E00
0E00
0E00
0E00
0E00
0E00
0E00
0E00
FFE0
FFE0
FFE0
FFE0
ENDCHAR
STARTCHAR 00CD
ENCODING 205
SWIDTH 591 0
DWIDTH 23 0
BBX 11 30 6 2
BITMAP
07E0
07E0
0F80
0F80
3800
3800
0000
FFE0
FFE0
FFE0
FFE0
0E00
0E00
0E00
0E00
0E00
0E00
0E00
0E00
0E00
0E00
0E00
0E00
0E00
0E00
0E00
FFE0
FFE0
FFE0
FFE0
ENDCHAR
STARTCHAR 00CE
ENCODING 206
SWIDTH 591 0
DWIDTH 23 0
BBX 11 31 6 2
BITMAP
0E00
0E00
3F80
3F80
F1E0
F1E0
0000
0000
FFE0
FFE0
FFE0
FFE0
0E00
0E00
0E00
0E00
0E00
0E00
0E00
0E00
0E00
0E00
0E00
0E00
0E00
0E00
0E00
FFE0
FFE0
FFE0
FFE0
ENDCHAR
STARTCHAR 00CF
ENCODING 207
SWIDTH 591 0
DWIDTH 23 0
BBX 11 30 6 2
BITMAP
F1E0
F1E0
F1E0
F1E0
0000
0000
0000
FFE0
FFE0
FFE0
FFE0
0E00
0E00
0E00
0E00
0E00
0E00
0E00
0E00
0E00
0E00
0E00
0E00
0E00
0E00
0E00
FFE0
FFE0
FFE0
FFE0
ENDCHAR
STARTCHAR 00D0
ENCODING 208
SWIDTH 591 0
DWIDTH 23 0
BBX 19 27 2 2
BITMAP
3FFE00
3FFE00
3FFF80
3FFF80
3C07E0
3C07E0
3C01E0
3C01E0
3C01E0
3C01E0
3C01E0
3C01E0
FF81E0
FF81E0
FF81E0
FF81E0
3C01E0
3C01E0
3C01E0
3C01E0
3C01E0
3C07E0
3C07E0
3FFF80
3FFF80
3FFE00
3FFE00
ENDCHAR
STARTCHAR 00D1
ENCODING 209
SWIDTH 591 0
DWIDTH 23 0
BBX 19 30 2 2
BITMAP
038600
0FFE00
0FFE00
0FFE00
0C7800
000000
000000
F001E0
F001E0
F001E0
F001E0
FC01E0
FC01E0
FF01E0
FF01E0
FF81E0
FF81E0
F3E1E0
F3F9E0
F0F9E0
F07FE0
F07FE0
F01FE0
F01FE0
F007E0
F007E0
F001E0
F001E0
F001E0
F001E0
ENDCHAR
STARTCHAR 00D2
ENCODING 210
SWIDTH 591 0
DWIDTH 23 0
BBX 19 30 2 2
BITMAP
0F8000
0F8000
03E000
03E000
007800
007800
000000
0FFE00
0FFE00
3FFF80
3FFF80
FC07E0
FC07E0
F001E0
F001E0
F001E0
F001E0
F001E0
F001E0
F001E0
F001E0
F001E0
F001E0
F001E0
FC07E0
FC07E0
3FFF80
3FFF80
0FFE00
0FFE00
ENDCHAR
STARTCHAR 00D3
ENCODING 211
SWIDTH 591 0
DWIDTH 23 0
BBX 19 30 2 2
BITMAP
007E00
007E00
00F800
00F800
038000
038000
000000
0FFE00
0FFE00
3FFF80
3FFF80
FC07E0
FC07E0
F001E0
F001E0
F001E0
F001E0
F001E0
F001E0
F001E0
F001E0
F001E0
F001E0
F001E0
FC07E0
FC07E0
3FFF80
3FFF80
0FFE00
0FFE00
ENDCHAR
STARTCHAR 00D4
ENCODING 212
SWIDTH 591 0
DWIDTH 23 0
BBX 19 31 2 2
BITMAP
00E000
00E000
03F800
03F800
0F1E00
0F1E00
000000
000000
0FFE00
0FFE00
3FFF80
3FFF80
FC07E0
FC07E0
F001E0
F001E0
F001E0
F001E0
F001E0
F001E0
F001E0
F001E0
F001E0
F001E0
F001E0
FC07E0
FC07E0
3FFF80
3FFF80
0FFE00
0FFE00
ENDCHAR
STARTCHAR 00D5
ENCODING 213
SWIDTH 591 0
DWIDTH 23 0
BBX 19 30 2 2
BITMAP
038600
0FFE00
0FFE00
0FFE00
0C7800
000000
000000
0FFE00
0FFE00
3FFF80
3FFF80
FC07E0
FC07E0
F001E0
F001E0
F001E0
F001E0
F001E0
F001E0
F001E0
F001E0
F001E0
F001E0
F001E0
FC07E0
FC07E0
3FFF80
3FFF80
0FFE00
0FFE00
ENDCHAR
STARTCHAR 00D6
ENCODING 214
SWIDTH 591 0
DWIDTH 23 0
BBX 19 30 2 2
BITMAP
0F1E00
0F1E00
0F1E00
0F1E00
000000
000000
000000
0FFE00
0FFE00
3FFF80
3FFF80
FC07E0
FC07E0
F001E0
F001E0
F001E0
F001E0
F001E0
F001E0
F001E0
F001E0
F001E0
F001E0
F001E0
FC07E0
FC07E0
3FFF80
3FFF80
0FFE00
0FFE00
ENDCHAR
STARTCHAR 00D8
ENCODING 216
SWIDTH 591 0
DWIDTH 23 0
BBX 19 27 2 2
BITMAP
0FF9E0
0FF9E0
3FFFE0
3FFFE0
FC1F80
FC1F80
F01FE0
F01FE0
F079E0
F079E0
F079E0
F079E0
F0E1E0
F0E1E0
F0E1E0
F381E0
F381E0
F381E0
F381E0
FF01E0
FF01E0
3F07E0
3F07E0
FFFF80
FFFF80
F3FE00
F3FE00
ENDCHAR
STARTCHAR 00D9
ENCODING 217
SWIDTH 591 0
DWIDTH 23 0
BBX 19 30 2 2
BITMAP
0F8000
0F8000
03E000
03E000
007800
007800
000000
F001E0
F001E0
F001E0
F001E0
F001E0
F001E0
F001E0
F001E0
F001E0
F001E0
F001E0
F001E0
F001E0
F001E0
F001E0
F001E0
F001E0
FC07E0
FC07E0
3FFF80
3FFF80
0FFE00
0FFE00
ENDCHAR
STARTCHAR 00DA
ENCODING 218
SWIDTH 591 0
DWIDTH 23 0
BBX 19 30 2 2
BITMAP
007E00
007E00
00F800
00F800
038000
038000
000000
F001E0
F001E0
F001E0
F001E0
F001E0
F001E0
F001E0
F001E0
F001E0
F001E0
F001E0
F001E0
F001E0
F001E0
F001E0
F001E0
F001E0
FC07E0
FC07E0
3FFF80
3FFF80
0FFE00
0FFE00
ENDCHAR
STARTCHAR 00DB
ENCODING 219
SWIDTH 591 0
DWIDTH 23 0
BBX 19 31 2 2
BITMAP
00E000
00E000
03F800
03F800
0F1E00
0F1E00
000000
000000
F001E0
F001E0
F001E0
F001E0
F001E0
F001E0
F001E0
F001E0
F001E0
F001E0
F001E0
F001E0
F001E0
F001E0
F001E0
F001E0
F001E0
FC07E0
FC07E0
3FFF80
3FFF80
0FFE00
0FFE00
ENDCHAR
STARTCHAR 00DC
ENCODING 220
SWIDTH 591 0
DWIDTH 23 0
BBX 19 30 2 2
BITMAP
0F1E00
0F1E00
0F1E00
0F1E00
000000
000000
000000
F001E0
F001E0
F001E0
F001E0
F001E0
F001E0
F001E0
F001E0
F001E0
F001E0
F001E0
F001E0
F001E0
F001E0
F001E0
F001E0
F001E0
FC07E0
FC07E0
3FFF80
3FFF80
0FFE00
0FFE00
ENDCHAR
STARTCHAR 00DD
ENCODING 221
SWIDTH 591 0
DWIDTH 23 0
BBX 19 30 2 2
BITMAP
007E00
007E00
00F800
00F800
038000
038000
000000
F001E0
F001E0
F001E0
F001E0
F001E0
F001E0
FC07E0
FC07E0
3F1F80
3F1F80
0FFE00
0FFE00
03F800
03F800
00E000
00E000
00E000
00E000
00E000
00E000
00E000
00E000
00E000
ENDCHAR
STARTCHAR 00DE
ENCODING 222
SWIDTH 591 0
DWIDTH 23 0
BBX 19 28 2 2
BITMAP
F00000
F00000
F00000
F00000
F00000
FFFE00
FFFE00
FFFF80
FFFF80
F007E0
F007E0
F001E0
F001E0
F001E0
F001E0
F001E0
F007E0
F007E0
FFFF80
FFFF80
FFFE00
FFFE00
F00000
F00000
F00000
F00000
F00000
F00000
ENDCHAR
STARTCHAR 00DF
ENCODING 223
SWIDTH 591 0
DWIDTH 23 0
BBX 17 31 2 2
BITMAP
0F0000
0F0000
3FE000
3FE000
FCF800
FCF800
F07800
F07800
F07800
F07800
F07800
F07800
F0E000
F0E000
F0E000
F0E000
F0E000
F0F800
F0F800
F07E00
F07E00
F01F80
F01F80
F00780
F00780
F00780
F00780
F3FF80
F3FF80
F3FE00
F3FE00
ENDCHAR
STARTCHAR 00E0
ENCODING 224
SWIDTH 591 0
DWIDTH 23 0
BBX 19 27 2 2
BITMAP
0F8000
0F8000
03E000
03E000
007800
007800
000000
000000
0FFE00
0FFE00
0FFF80
0FFF80
0001E0
0001E0
0FF9E0
0FF9E0
3FFFE0
3FFFE0
FC07E0
FC07E0
F001E0
FC07E0
FC07E0
3FFFE0
3FFFE0
0FF9E0
0FF9E0
ENDCHAR
STARTCHAR 00E1
ENCODING 225
SWIDTH 591 0
DWIDTH 23 0
BBX 19 27 2 2
BITMAP
007E00
007E00
00F800
00F800
038000
038000
000000
000000
0FFE00
0FFE00
0FFF80
0FFF80
0001E0
0001E0
0FF9E0
0FF9E0
3FFFE0
3FFFE0
FC07E0
FC07E0
F001E0
FC07E0
FC07E0
3FFFE0
3FFFE0
0FF9E0
0FF9E0
ENDCHAR
STARTCHAR 00E2
ENCODING 226
SWIDTH 591 0
DWIDTH 23 0
BBX 19 27 2 2
BITMAP
00E000
00E000
03F800
03F800
0F1E00
0F1E00
000000
000000
0FFE00
0FFE00
0FFF80
0FFF80
0001E0
0001E0
0FF9E0
0FF9E0
3FFFE0
3FFFE0
FC07E0
FC07E0
F001E0
FC07E0
FC07E0
3FFFE0
3FFFE0
0FF9E0
0FF9E0
ENDCHAR
STARTCHAR 00E3
ENCODING 227
SWIDTH 591 0
DWIDTH 23 0
BBX 19 27 2 2
BITMAP
038600
038600
0FFE00
0FFE00
0C7800
0C7800
000000
000000
0FFE00
0FFE00
0FFF80
0FFF80
0001E0
0001E0
0FF9E0
0FF9E0
3FFFE0
3FFFE0
FC07E0
FC07E0
F001E0
FC07E0
FC07E0
3FFFE0
3FFFE0
0FF9E0
0FF9E0
ENDCHAR
STARTCHAR 00E4
ENCODING 228
SWIDTH 591 0
DWIDTH 23 0
BBX 19 27 2 2
BITMAP
0F1E00
0F1E00
0F1E00
0F1E00
000000
000000
000000
000000
0FFE00
0FFE00
0FFF80
0FFF80
0001E0
0001E0
0FF9E0
0FF9E0
3FFFE0
3FFFE0
FC07E0
FC07E0
F001E0
FC07E0
FC07E0
3FFFE0
3FFFE0
0FF9E0
0FF9E0
ENDCHAR
STARTCHAR 00E5
ENCODING 229
SWIDTH 591 0
DWIDTH 23 0
BBX 19 27 2 2
BITMAP
00E000
00E000
031800
031800
031800
031800
00E000
00E000
0FFE00
0FFE00
0FFF80
0FFF80
0001E0
0001E0
0FF9E0
0FF9E0
3FFFE0
3FFFE0
FC07E0
FC07E0
F001E0
FC07E0
FC07E0
3FFFE0
3FFFE0
0FF9E0
0FF9E0
ENDCHAR
STARTCHAR 00E6
ENCODING 230
SWIDTH 591 0
DWIDTH 23 0
BBX 19 21 2 2
BITMAP
FF1F80
FF1F80
FFFFE0
FFFFE0
00E1E0
00E1E0
00E1E0
00E1E0
3FFFE0
3FFFE0
FFFFE0
FFFFE0
F0E000
F0E000
F0E000
F0E000
F0E000
FFFF80
FFFF80
3F9F80
3F9F80
ENDCHAR
STARTCHAR 00E7
ENCODING 231
SWIDTH 591 0
DWIDTH 23 0
BBX 19 25 2 2
BITMAP
0FFE00
0FFE00
3FFF80
3FFF80
FC07E0
FC07E0
F001E0
F001E0
F00000
F00000
F00000
F00000
F001E0
FC07E0
FC07E0
BFFF80
3FFF80
3FFF80
0FFE00
00F800
00F800
03E000
03E000
0F8000
0F8000
ENDCHAR
STARTCHAR 00E8
ENCODING 232
SWIDTH 591 0
DWIDTH 23 0
BBX 19 27 2 2
BITMAP
0F8000
0F8000
03E000
03E000
007800
007800
000000
000000
0FFE00
0FFE00
3FFF80
3FFF80
FC07E0
FC07E0
F001E0
F001E0
FFFFE0
FFFFE0
FFFF80
FFFF80
F00000
FC07E0
FC07E0
3FFF80
3FFF80
0FFE00
0FFE00
ENDCHAR
STARTCHAR 00E9
ENCODING 233
SWIDTH 591 0
DWIDTH 23 0
BBX 19 27 2 2
BITMAP
007E00
007E00
00F800
00F800
038000
038000
000000
000000
0FFE00
0FFE00
3FFF80
3FFF80
FC07E0
FC07E0
F001E0
F001E0
FFFFE0
FFFFE0
FFFF80
FFFF80
F00000
FC07E0
FC07E0
3FFF80
3FFF80
0FFE00
0FFE00
ENDCHAR
STARTCHAR 00EA
ENCODING 234
SWIDTH 591 0
DWIDTH 23 0
BBX 19 27 2 2
BITMAP
00E000
00E000
03F800
03F800
0F1E00
0F1E00
000000
000000
0FFE00
0FFE00
3FFF80
3FFF80
FC07E0
FC07E0
F001E0
F001E0
FFFFE0
FFFFE0
FFFF80
FFFF80
F00000
FC07E0
FC07E0
3FFF80
3FFF80
0FFE00
0FFE00
ENDCHAR
STARTCHAR 00EB
ENCODING 235
SWIDTH 591 0
DWIDTH 23 0
BBX 19 27 2 2
BITMAP
0F1E00
0F1E00
0F1E00
0F1E00
000000
000000
000000
000000
0FFE00
0FFE00
3FFF80
3FFF80
FC07E0
FC07E0
F001E0
F001E0
FFFFE0
FFFFE0
FFFF80
FFFF80
F00000
FC07E0
FC07E0
3FFF80
3FFF80
0FFE00
0FFE00
ENDCHAR
STARTCHAR 00EC
ENCODING 236
SWIDTH 591 0
DWIDTH 23 0
BBX 13 27 4 2
BITMAP
FC00
FC00
3E00
3E00
0380
0380
0000
0000
0000
0000
3F80
3F80
3F80
3F80
0380
0380
0380
0380
0380
0380
0380
03E0
03E0
01F8
01F8
0078
0078
ENDCHAR
STARTCHAR 00ED
ENCODING 237
SWIDTH 591 0
DWIDTH 23 0
BBX 11 27 6 2
BITMAP
07E0
07E0
0F80
0F80
3800
3800
0000
0000
0000
0000
FE00
FE00
FE00
FE00
0E00
0E00
0E00
0E00
0E00
0E00
0E00
0F80
0F80
07E0
07E0
01E0
01E0
ENDCHAR
STARTCHAR 00EE
ENCODING 238
SWIDTH 591 0
DWIDTH 23 0
BBX 13 27 4 2
BITMAP
0E00
0E00
3F80
3F80
F1E0
F1E0
0000
0000
0000
0000
3F80
3F80
3F80
3F80
0380
0380
0380
0380
0380
0380
0380
03E0
03E0
01F8
01F8
0078
0078
ENDCHAR
STARTCHAR 00EF
ENCODING 239
SWIDTH 591 0
DWIDTH 23 0
BBX 13 27 4 2
BITMAP
F1E0
F1E0
F1E0
F1E0
0000
0000
0000
0000
0000
0000
3F80
3F80
3F80
3F80
0380
0380
0380
0380
0380
0380
0380
03E0
03E0
01F8
01F8
0078
0078
ENDCHAR
STARTCHAR 00F0
ENCODING 240
SWIDTH 591 0
DWIDTH 23 0
BBX 19 28 2 2
BITMAP
000780
000780
000780
03FFE0
03FFE0
03FFE0
03FFE0
000780
000780
0FFF80
0FFF80
3FFF80
3FFF80
FC0780
FC0780
F00780
F00780
F00780
F00780
F00780
F00780
F00780
FC1F80
FC1F80
3FFE00
3FFE00
0FF800
0FF800
ENDCHAR
STARTCHAR 00F1
ENCODING 241
SWIDTH 591 0
DWIDTH 23 0
BBX 19 27 2 2
BITMAP
038600
038600
0FFE00
0FFE00
0C7800
0C7800
000000
000000
F3FE00
F3FE00
FFFF80
FFFF80
FC07E0
FC07E0
F001E0
F001E0
F001E0
F001E0
F001E0
F001E0
F001E0
F001E0
F001E0
F001E0
F001E0
F001E0
F001E0
ENDCHAR
STARTCHAR 00F2
ENCODING 242
SWIDTH 591 0
DWIDTH 23 0
BBX 19 27 2 2
BITMAP
0F8000
0F8000
03E000
03E000
007800
007800
000000
000000
0FFE00
0FFE00
3FFF80
3FFF80
FC07E0
FC07E0
F001E0
F001E0
F001E0
F001E0
F001E0
F001E0
F001E0
FC07E0
FC07E0
3FFF80
3FFF80
0FFE00
0FFE00
ENDCHAR
STARTCHAR 00F3
ENCODING 243
SWIDTH 591 0
DWIDTH 23 0
BBX 19 27 2 2
BITMAP
007E00
007E00
00F800
00F800
038000
038000
000000
000000
0FFE00
0FFE00
3FFF80
3FFF80
FC07E0
FC07E0
F001E0
F001E0
F001E0
F001E0
F001E0
F001E0
F001E0
FC07E0
FC07E0
3FFF80
3FFF80
0FFE00
0FFE00
ENDCHAR
STARTCHAR 00F4
ENCODING 244
SWIDTH 591 0
DWIDTH 23 0
BBX 19 27 2 2
BITMAP
00E000
00E000
03F800
03F800
0F1E00
0F1E00
000000
000000
0FFE00
0FFE00
3FFF80
3FFF80
FC07E0
FC07E0
F001E0
F001E0
F001E0
F001E0
F001E0
F001E0
F001E0
FC07E0
FC07E0
3FFF80
3FFF80
0FFE00
0FFE00
ENDCHAR
STARTCHAR 00F5
ENCODING 245
SWIDTH 591 0
DWIDTH 23 0
BBX 19 27 2 2
BITMAP
038600
038600
0FFE00
0FFE00
0C7800
0C7800
000000
000000
0FFE00
0FFE00
3FFF80
3FFF80
FC07E0
FC07E0
F001E0
F001E0
F001E0
F001E0
F001E0
F001E0
F001E0
FC07E0
FC07E0
3FFF80
3FFF80
0FFE00
0FFE00
ENDCHAR
STARTCHAR 00F6
ENCODING 246
SWIDTH 591 0
DWIDTH 23 0
BBX 19 27 2 2
BITMAP
0F1E00
0F1E00
0F1E00
0F1E00
000000
000000
000000
000000
0FFE00
0FFE00
3FFF80
3FFF80
FC07E0
FC07E0
F001E0
F001E0
F001E0
F001E0
F001E0
F001E0
F001E0
FC07E0
FC07E0
3FFF80
3FFF80
0FFE00
0FFE00
ENDCHAR
STARTCHAR 00F8
ENCODING 248
SWIDTH 591 0
DWIDTH 23 0
BBX 19 21 2 2
BITMAP
0FF9E0
0FF9E0
3FFFE0
3FFFE0
FC0780
FC0780
F01FE0
F019E0
F079E0
F061E0
F0E1E0
F081E0
F381E0
F301E0
FF01E0
3C07E0
3C07E0
FFFF80
FFFF80
F3FE00
F3FE00
ENDCHAR
STARTCHAR 00F9
ENCODING 249
SWIDTH 591 0
DWIDTH 23 0
BBX 19 27 2 2
BITMAP
0F8000
0F8000
03E000
03E000
007800
007800
000000
000000
F001E0
F001E0
F001E0
F001E0
F001E0
F001E0
F001E0
F001E0
F001E0
F001E0
F001E0
F001E0
F001E0
FC07E0
FC07E0
3FFF80
3FFF80
0FFE00
0FFE00
ENDCHAR
STARTCHAR 00FA
ENCODING 250
SWIDTH 591 0
DWIDTH 23 0
BBX 19 27 2 2
BITMAP
007E00
007E00
00F800
00F800
038000
038000
000000
000000
F001E0
F001E0
F001E0
F001E0
F001E0
F001E0
F001E0
F001E0
F001E0
F001E0
F001E0
F001E0
F001E0
FC07E0
FC07E0
3FFF80
3FFF80
0FFE00
0FFE00
ENDCHAR
STARTCHAR 00FB
ENCODING 251
SWIDTH 591 0
DWIDTH 23 0
BBX 19 27 2 2
BITMAP
00E000
00E000
03F800
03F800
0F1E00
0F1E00
000000
000000
F001E0
F001E0
F001E0
F001E0
F001E0
F001E0
F001E0
F001E0
F001E0
F001E0
F001E0
F001E0
F001E0
FC07E0
FC07E0
3FFF80
3FFF80
0FFE00
0FFE00
ENDCHAR
STARTCHAR 00FC
ENCODING 252
SWIDTH 591 0
DWIDTH 23 0
BBX 19 27 2 2
BITMAP
0F1E00
0F1E00
0F1E00
0F1E00
000000
000000
000000
000000
F001E0
F001E0
F001E0
F001E0
F001E0
F001E0
F001E0
F001E0
F001E0
F001E0
F001E0
F001E0
F001E0
FC07E0
FC07E0
3FFF80
3FFF80
0FFE00
0FFE00
ENDCHAR
STARTCHAR 00FD
ENCODING 253
SWIDTH 591 0
DWIDTH 23 0
BBX 19 27 2 2
BITMAP
007E00
007E00
00F800
00F800
038000
038000
000000
000000
F001E0
F001E0
F007E0
F007E0
F01FE0
F01FE0
FC7FE0
FC7FE0
3FF9E0
3FF9E0
0FE1E0
0FE1E0
0001E0
0007E0
0007E0
0FFF80
0FFF80
0FFE00
0FFE00
ENDCHAR
STARTCHAR 00FE
ENCODING 254
SWIDTH 591 0
DWIDTH 23 0
BBX 19 25 2 2
BITMAP
F00000
F00000
F00000
F00000
F0FE00
F0FE00
FFFF80
FFFF80
FF07E0
FF07E0
F001E0
F001E0
F001E0
F001E0
F001E0
FF07E0
FF07E0
FFFF80
FFFF80
F0FE00
F0FE00
F00000
F00000
F00000
F00000
ENDCHAR
STARTCHAR 00FF
ENCODING 255
SWIDTH 591 0
DWIDTH 23 0
BBX 19 27 2 2
BITMAP
0F1E00
0F1E00
0F1E00
0F1E00
000000
000000
000000
000000
F001E0
F001E0
F007E0
F007E0
F01FE0
F01FE0
FC7FE0
FC7FE0
3FF9E0
3FF9E0
0FE1E0
0FE1E0
0001E0
0007E0
0007E0
0FFF80
0FFF80
0FFE00
0FFE00
ENDCHAR
STARTCHAR 037E
ENCODING 894
SWIDTH 591 0
DWIDTH 23 0
BBX 7 23 4 2
BITMAP
0E
0E
0E
0E
00
00
00
00
00
00
00
00
00
00
00
0E
0E
0E
0E
3C
3C
F0
F0
ENDCHAR
STARTCHAR 2018
ENCODING 8216
SWIDTH 591 0
DWIDTH 23 0
BBX 6 12 11 17
BITMAP
0C
0C
30
30
F0
F0
FC
FC
FC
FC
FC
FC
ENDCHAR
STARTCHAR 2019
ENCODING 8217
SWIDTH 591 0
DWIDTH 23 0
BBX 5 12 6 17
BITMAP
F8
F8
F8
F8
F8
F8
38
38
30
30
C0
C0
ENDCHAR
STARTCHAR 201C
ENCODING 8220
SWIDTH 591 0
DWIDTH 23 0
BBX 15 12 4 17
BITMAP
0C06
0C06
3018
3018
F078
F078
FC7E
FC7E
FC7E
FC7E
FC7E
FC7E
ENDCHAR
STARTCHAR 201D
ENCODING 8221
SWIDTH 591 0
DWIDTH 23 0
BBX 15 12 4 17
BITMAP
FC7E
FC7E
FC7E
FC7E
FC7E
FC7E
3C1E
3C1E
3018
3018
C060
C060
ENDCHAR
STARTCHAR 2022
ENCODING 8226
SWIDTH 591 0
DWIDTH 23 0
BBX 11 10 6 11
BITMAP
3F80
3F80
FFE0
FFE0
FFE0
FFE0
FFE0
FFE0
3F80
3F80
ENDCHAR
STARTCHAR 2026
ENCODING 8230
SWIDTH 591 0
DWIDTH 23 0
BBX 19 4 2 2
BITMAP
F0E1E0
F0E1E0
F0E1E0
F0E1E0
ENDCHAR
STARTCHAR 2039
ENCODING 8249
SWIDTH 591 0
DWIDTH 23 0
BBX 9 17 4 2
BITMAP
0180
0180
0380
0380
0E00
0E00
3C00
3C00
F000
3C00
3C00
0E00
0E00
0380
0380
0180
0180
ENDCHAR
STARTCHAR 203A
ENCODING 8250
SWIDTH 591 0
DWIDTH 23 0
BBX 9 17 6 2
BITMAP
C000
C000
F000
F000
3800
3800
0E00
0E00
0780
0E00
0E00
3800
3800
F000
F000
C000
C000
ENDCHAR
STARTCHAR 2044
ENCODING 8260
SWIDTH 591 0
DWIDTH 23 0
BBX 19 27 2 2
BITMAP
0001E0
0001E0
0001E0
0001E0
0001E0
0001E0
0007E0
0007E0
001F80
001F80
007E00
007E00
00F800
00E000
03E000
0F8000
0F8000
3F0000
3F0000
FC0000
FC0000
F00000
F00000
F00000
F00000
F00000
F00000
ENDCHAR
STARTCHAR 20A3
ENCODING 8355
SWIDTH 591 0
DWIDTH 23 0
BBX 19 27 2 2
BITMAP
3FFFE0
3FFFE0
3FFFE0
3FFFE0
3C0000
3C0000
3C0000
3C0000
3C0000
3C0000
3C0000
3C0000
3FFE00
3FFE00
3FFE00
3FFE00
3C0000
3C0000
3C0000
FF8000
FF8000
3C0000
3C0000
3C0000
3C0000
3C0000
3C0000
ENDCHAR
STARTCHAR 20A4
ENCODING 8356
SWIDTH 591 0
DWIDTH 23 0
BBX 19 30 2 2
BITMAP
00FE00
03FF80
03FF80
0BE7C0
0F87E0
0F87E0
0F01E0
0F0000
0F0000
0F0000
0F0000
FFFE00
FFFE00
FFFE00
FFFE00
0F0000
0F0000
FFFE00
FFFE00
FFFE00
FFFE00
0F0000
0F0000
0F0000
3C0000
3C0000
FFFFE0
FFFFE0
FFFFE0
FFFFE0
ENDCHAR
STARTCHAR 20A7
ENCODING 8359
SWIDTH 591 0
DWIDTH 23 0
BBX 19 27 2 2
BITMAP
FC0000
FC0000
CF0000
CF0000
C30000
C30000
C30000
C30000
C30000
C30000
C36000
C36000
C36000
C36000
CFFFE0
CFFFE0
FC6660
FC6660
C06600
C067E0
C067E0
C06060
C06060
C06660
C06660
C067E0
C067E0
ENDCHAR
STARTCHAR 20AC
ENCODING 8364
SWIDTH 591 0
DWIDTH 23 0
BBX 19 31 2 2
BITMAP
00FE00
00FE00
03FF80
03FF80
0F81E0
0F81E0
3F0000
3F0000
3C0000
3C0000
FFE000
FFE000
FFE000
FFE000
3C0000
3C0000
FFE000
FFE000
FFE000
FFE000
3C0000
3C0000
3C0000
3F0000
3F0000
0F81E0
0F81E0
03FF80
03FF80
00FE00
00FE00
ENDCHAR
STARTCHAR 2122
ENCODING 8482
SWIDTH 591 0
DWIDTH 23 0
BBX 19 12 2 17
BITMAP
FFE060
FFE060
0C79E0
0C79E0
0C6660
0C6660
0C6060
0C6060
0C6060
0C6060
0C6060
0C6060
ENDCHAR
STARTCHAR 2190
ENCODING 8592
SWIDTH 591 0
DWIDTH 23 0
BBX 19 19 2 6
BITMAP
00E000
00E000
038000
038000
0F0000
0F0000
3C0000
3C0000
FFFFE0
FFFFE0
FFFFE0
FFFFE0
3C0000
3C0000
0F0000
0F8000
038000
00E000
00E000
ENDCHAR
STARTCHAR 2191
ENCODING 8593
SWIDTH 591 0
DWIDTH 23 0
BBX 19 19 2 6
BITMAP
00E000
00E000
00E000
00E000
03F800
03F800
03F800
03F800
0F1E00
0F1E00
0F1E00
3E1700
3C0780
3C0780
3C0780
F001E0
F001E0
F001E0
F001E0
ENDCHAR
STARTCHAR 2192
ENCODING 8594
SWIDTH 591 0
DWIDTH 23 0
BBX 19 19 2 6
BITMAP
00E000
00E000
007800
007800
001E00
001E00
000780
000780
FFFFE0
FFFFE0
FFFFE0
FFFFE0
000780
000780
001E00
001800
007800
00E000
00E000
ENDCHAR
STARTCHAR 2193
ENCODING 8595
SWIDTH 591 0
DWIDTH 23 0
BBX 19 19 2 6
BITMAP
F001E0
F001E0
F001E0
F001E0
3C0780
3C0780
3C0780
3C0780
0F1E00
0F1E00
0F1E00
03F800
03F800
03F800
03F800
03F800
00E000
00E000
00E000
ENDCHAR
STARTCHAR 2194
ENCODING 8596
SWIDTH 591 0
DWIDTH 23 0
BBX 19 19 2 4
BITMAP
006000
006000
007800
007800
007E00
007E00
FFFF80
FFFF80
FFFFE0
FFFFE0
FFFFE0
FFFFE0
FFFF80
FFFF80
007E00
007E00
007800
006000
006000
ENDCHAR
STARTCHAR 2215
ENCODING 8725
SWIDTH 591 0
DWIDTH 23 0
BBX 19 27 2 2
BITMAP
0001E0
0001E0
0001E0
0001E0
0001E0
0001E0
0007E0
0007E0
001F80
001F80
007E00
007E00
00F800
00E000
03E000
0F8000
0F8000
3F0000
3F0000
FC0000
FC0000
F00000
F00000
F00000
F00000
F00000
F00000
ENDCHAR
STARTCHAR 25B2
ENCODING 9650
SWIDTH 591 0
DWIDTH 23 0
BBX 19 23 2 4
BITMAP
00E000
00E000
00E000
00E000
03F800
03F800
03F800
03FE00
0FFE00
0FFE00
0FFE00
3FFF80
3FFF80
3FFF80
3FFF80
FFFFE0
FFFFE0
FFFFE0
FFFFE0
FFFFE0
FFFFE0
FFFFE0
FFFFE0
ENDCHAR
STARTCHAR 25BA
ENCODING 9658
SWIDTH 591 0
DWIDTH 23 0
BBX 15 23 4 4
BITMAP
FC00
FC00
FE00
FE00
FF80
FF80
FFE0
FFE0
FFF8
FFF8
FFFE
FFFE
FFFE
FFF8
FFF8
FFE0
FFE0
FF80
FF80
FE00
FE00
FC00
FC00
ENDCHAR
STARTCHAR 25BC
ENCODING 9660
SWIDTH 591 0
DWIDTH 23 0
BBX 19 23 2 4
BITMAP
FFFFE0
FFFFE0
FFFFE0
FFFFE0
FFFFE0
FFFFE0
FFFFE0
FFFFE0
3FFF80
3FFF80
3FFF80
3FFF80
0FFE00
0FFE00
0FFE00
0FF800
03F800
03F800
03F800
00E000
00E000
00E000
00E000
ENDCHAR
STARTCHAR 25C4
ENCODING 9668
SWIDTH 591 0
DWIDTH 23 0
BBX 15 23 4 4
BITMAP
007E
007E
01FE
01FE
03FE
03FE
0FFE
0FFE
3FFE
3FFE
FFFE
FFFE
FFFE
3FFE
3FFE
0FFE
0FFE
03FE
03FE
01FE
01FE
007E
007E
ENDCHAR
ENDFONT
